<svg xmlns="http://www.w3.org/2000/svg" viewBox="0 0 333334 228226" shape-rendering="geometricPrecision" text-rendering="geometricPrecision" image-rendering="optimizeQuality" fill-rule="evenodd" clip-rule="evenodd"><path d="M331997 106637c-2377-2377-32885-40809-38035-47148-5547-6339-7924-5151-11490-4754-3566 396-41998 7132-46356 7528-4358 792-7132 2377-4358 6339 2377 3566 27734 39224 33281 47545l-101032 24169L83974 6003C80804 1249 80012-336 72880 60S9883 5210 5922 5210c-3962 396-8320 1981-4358 11490s67354 145803 68939 149765 6339 10301 17037 7924c11094-2773 49129-12678 70128-18225 11094 19810 33281 60223 37639 66166 5547 7924 9509 6339 17829 3962 6735-1981 103805-36847 108164-38828 4358-1981 7132-3170 3962-7528-2377-3170-27734-37639-41205-55469 9113-2377 41997-11094 45563-12282 3962-1189 4754-3169 2377-5546zm-183442 37639c-1189 396-57846 13867-60619 14659-3170 793-3170 396-3170-792-792-1189-67354-139067-68543-140652-793-1585-793-3170 0-3170s53487-4755 55072-4755c1981 0 1585 396 2378 1585 0 0 74090 127974 75278 129954 1585 1981 793 2774-396 3170zm159273 29715c793 1585 1981 2377-1189 3170-2773 1189-95485 32489-97466 33281-1981 793-3170 1189-5547-2377s-32489-55468-32489-55468l98654-25753c2377-793 3170-1189 4755 1189 1585 2773 32489 44771 33281 45960zm6339-69732c-2377 396-38432 9509-38432 9509l-29715-40413c-793-1189-1585-2378 396-2774s35658-6339 37243-6735 2773-793 4754 1981c1981 2377 27338 34866 28526 36054 1189 1189-396 1981-2773 2377z" fill="#fb503b"/></svg>